#Comment line ignore any data following # character 
#Hierarchical Translation and Rotation (.htr) file 
[Header]	
#Header keywords are followed by a single value 
FileType HTR		#Single word string
DataType HTRS		#Translation followed by rotation and scale data
FileVersion 1		#integer
NumSegments 84		#integer
NumFrames 2		#integer
DataFrameRate 30		#integer, data frame rate in this file
EulerRotationOrder ZYX
CalibrationUnits mm
RotationUnits Degrees
GlobalAxisofGravity Y
BoneLengthAxis Y
ScaleFactor 1.00
[SegmentNames&Hierarchy]
#CHILD	PARENT
MASTER GLOBAL
root MASTER
chest root
L_mid_tent01 root
R_mid_tent01 root
spine01 root
Bip01_Neck chest
L_humerus chest
R_humerus chest
weapon_bone chest
Bip01_Head Bip01_Neck
eye_left_bone Bip01_Head
eye_right_bone Bip01_Head
L_forearm L_humerus
L_front_hand L_forearm
L_weapon_bone L_forearm
L_front_hand01_01 L_front_hand
L_front_hand02_01 L_front_hand
L_front_hand03_01 L_front_hand
L_front_hand01_02 L_front_hand01_01
L_front_hand02_02 L_front_hand02_01
L_front_hand03_02 L_front_hand03_01
R_forearm R_humerus
R_front_hand R_forearm
R_weapon_bone R_forearm
R_front_hand01_01 R_front_hand
R_front_hand02_01 R_front_hand
R_front_hand03_01 R_front_hand
R_front_hand01_02 R_front_hand01_01
R_front_hand02_02 R_front_hand02_01
R_front_hand03_02 R_front_hand03_01
null_rope01_connect L_mid_tent01
Rope1_Seg01 null_rope01_connect
Rope1_Seg02 Rope1_Seg01
Rope1_Seg03 Rope1_Seg02
Rope1_Seg04 Rope1_Seg03
Rope1_Seg05 Rope1_Seg04
Rope1_Seg06 Rope1_Seg05
Rope1_Seg07 Rope1_Seg06
Rope1_Seg09 Rope1_Seg07
L_mid_hand01 Rope1_Seg09
L_mid_hand02 Rope1_Seg09
L_mid_hand03 Rope1_Seg09
null_rope02_connect R_mid_tent01
Rope2_Seg01 null_rope02_connect
Rope2_Seg02 Rope2_Seg01
Rope2_Seg03 Rope2_Seg02
Rope2_Seg04 Rope2_Seg03
Rope2_Seg05 Rope2_Seg04
Rope2_Seg06 Rope2_Seg05
Rope2_Seg07 Rope2_Seg06
Rope2_Seg09 Rope2_Seg07
R_mid_hand01 Rope2_Seg09
R_mid_hand02 Rope2_Seg09
R_mid_hand03 Rope2_Seg09
spine02 spine01
spine03 spine02
pelvis spine03
null_rope03_connect pelvis
null_rope04_connect pelvis
Rope3_Seg01 null_rope03_connect
Rope3_Seg02 Rope3_Seg01
Rope3_Seg03 Rope3_Seg02
Rope3_Seg04 Rope3_Seg03
Rope3_Seg05 Rope3_Seg04
Rope3_Seg06 Rope3_Seg05
Rope3_Seg07 Rope3_Seg06
Rope3_Seg08 Rope3_Seg07
Rope3_Seg09 Rope3_Seg08
R_rear_hand01 Rope3_Seg09
R_rear_hand02 Rope3_Seg09
R_rear_hand03 Rope3_Seg09
Rope4_Seg01 null_rope04_connect
Rope4_Seg02 Rope4_Seg01
Rope4_Seg03 Rope4_Seg02
Rope4_Seg04 Rope4_Seg03
Rope4_Seg05 Rope4_Seg04
Rope4_Seg06 Rope4_Seg05
Rope4_Seg07 Rope4_Seg06
Rope4_Seg08 Rope4_Seg07
Rope4_Seg09 Rope4_Seg08
L_rear_hand01 Rope4_Seg09
L_rear_hand02 Rope4_Seg09
L_rear_hand03 Rope4_Seg09
[BasePosition]
#SegmentName Tx, Ty, Tz, Rx, Ry, Rz, BoneLength
MASTER 0.000000 0.000000 0.000000 -90.000000 0.000000 0.000000 10.000000 
root 0.000000 0.000000 0.000000 0.000000 0.000000 0.000000 10.000000 
chest 0.000000 0.000000 0.000000 0.000000 0.000000 0.000000 10.000000 
L_mid_tent01 0.000000 0.000000 0.000000 0.000000 0.000000 0.000000 10.000000 
R_mid_tent01 0.000000 0.000000 0.000000 0.000000 0.000000 0.000000 10.000000 
spine01 0.000000 0.000000 0.000000 0.000000 0.000000 0.000000 10.000000 
Bip01_Neck 0.000000 0.000000 0.000000 0.000000 0.000000 0.000000 10.000000 
L_humerus 0.000000 0.000000 0.000000 0.000000 0.000000 0.000000 10.000000 
R_humerus 0.000000 0.000000 0.000000 0.000000 0.000000 0.000000 10.000000 
weapon_bone 0.000000 0.000000 0.000000 0.000000 0.000000 0.000000 10.000000 
Bip01_Head 0.000000 0.000000 0.000000 0.000000 0.000000 0.000000 10.000000 
eye_left_bone 0.000000 0.000000 0.000000 0.000000 0.000000 0.000000 10.000000 
eye_right_bone 0.000000 0.000000 0.000000 0.000000 0.000000 0.000000 10.000000 
L_forearm 0.000000 0.000000 0.000000 0.000000 0.000000 0.000000 10.000000 
L_front_hand 0.000000 0.000000 0.000000 0.000000 0.000000 0.000000 10.000000 
L_weapon_bone 0.000000 0.000000 0.000000 0.000000 0.000000 0.000000 10.000000 
L_front_hand01_01 0.000000 0.000000 0.000000 0.000000 0.000000 0.000000 10.000000 
L_front_hand02_01 0.000000 0.000000 0.000000 0.000000 0.000000 0.000000 10.000000 
L_front_hand03_01 0.000000 0.000000 0.000000 0.000000 0.000000 0.000000 10.000000 
L_front_hand01_02 0.000000 0.000000 0.000000 0.000000 0.000000 0.000000 10.000000 
L_front_hand02_02 0.000000 0.000000 0.000000 0.000000 0.000000 0.000000 10.000000 
L_front_hand03_02 0.000000 0.000000 0.000000 0.000000 0.000000 0.000000 10.000000 
R_forearm 0.000000 0.000000 0.000000 0.000000 0.000000 0.000000 10.000000 
R_front_hand 0.000000 0.000000 0.000000 0.000000 0.000000 0.000000 10.000000 
R_weapon_bone 0.000000 0.000000 0.000000 0.000000 0.000000 0.000000 10.000000 
R_front_hand01_01 0.000000 0.000000 0.000000 0.000000 0.000000 0.000000 10.000000 
R_front_hand02_01 0.000000 0.000000 0.000000 0.000000 0.000000 0.000000 10.000000 
R_front_hand03_01 0.000000 0.000000 0.000000 0.000000 0.000000 0.000000 10.000000 
R_front_hand01_02 0.000000 0.000000 0.000000 0.000000 0.000000 0.000000 10.000000 
R_front_hand02_02 0.000000 0.000000 0.000000 0.000000 0.000000 0.000000 10.000000 
R_front_hand03_02 0.000000 0.000000 0.000000 0.000000 0.000000 0.000000 10.000000 
null_rope01_connect 0.000000 0.000000 0.000000 0.000000 0.000000 0.000000 10.000000 
Rope1_Seg01 0.000000 0.000000 0.000000 0.000000 0.000000 0.000000 10.000000 
Rope1_Seg02 0.000000 0.000000 0.000000 0.000000 0.000000 0.000000 10.000000 
Rope1_Seg03 0.000000 0.000000 0.000000 0.000000 0.000000 0.000000 10.000000 
Rope1_Seg04 0.000000 0.000000 0.000000 0.000000 0.000000 0.000000 10.000000 
Rope1_Seg05 0.000000 0.000000 0.000000 0.000000 0.000000 0.000000 10.000000 
Rope1_Seg06 0.000000 0.000000 0.000000 0.000000 0.000000 0.000000 10.000000 
Rope1_Seg07 0.000000 0.000000 0.000000 0.000000 0.000000 0.000000 10.000000 
Rope1_Seg09 0.000000 0.000000 0.000000 0.000000 0.000000 0.000000 10.000000 
L_mid_hand01 0.000000 0.000000 0.000000 0.000000 0.000000 0.000000 10.000000 
L_mid_hand02 0.000000 0.000000 0.000000 0.000000 0.000000 0.000000 10.000000 
L_mid_hand03 0.000000 0.000000 0.000000 0.000000 0.000000 0.000000 10.000000 
null_rope02_connect 0.000000 0.000000 0.000000 0.000000 0.000000 0.000000 10.000000 
Rope2_Seg01 0.000000 0.000000 0.000000 0.000000 0.000000 0.000000 10.000000 
Rope2_Seg02 0.000000 0.000000 0.000000 0.000000 0.000000 0.000000 10.000000 
Rope2_Seg03 0.000000 0.000000 0.000000 0.000000 0.000000 0.000000 10.000000 
Rope2_Seg04 0.000000 0.000000 0.000000 0.000000 0.000000 0.000000 10.000000 
Rope2_Seg05 0.000000 0.000000 0.000000 0.000000 0.000000 0.000000 10.000000 
Rope2_Seg06 0.000000 0.000000 0.000000 0.000000 0.000000 0.000000 10.000000 
Rope2_Seg07 0.000000 0.000000 0.000000 0.000000 0.000000 0.000000 10.000000 
Rope2_Seg09 0.000000 0.000000 0.000000 0.000000 0.000000 0.000000 10.000000 
R_mid_hand01 0.000000 0.000000 0.000000 0.000000 0.000000 0.000000 10.000000 
R_mid_hand02 0.000000 0.000000 0.000000 0.000000 0.000000 0.000000 10.000000 
R_mid_hand03 0.000000 0.000000 0.000000 0.000000 0.000000 0.000000 10.000000 
spine02 0.000000 0.000000 0.000000 0.000000 0.000000 0.000000 10.000000 
spine03 0.000000 0.000000 0.000000 0.000000 0.000000 0.000000 10.000000 
pelvis 0.000000 0.000000 0.000000 0.000000 0.000000 0.000000 10.000000 
null_rope03_connect 0.000000 0.000000 0.000000 0.000000 0.000000 0.000000 10.000000 
null_rope04_connect 0.000000 0.000000 0.000000 0.000000 0.000000 0.000000 10.000000 
Rope3_Seg01 0.000000 0.000000 0.000000 0.000000 0.000000 0.000000 10.000000 
Rope3_Seg02 0.000000 0.000000 0.000000 0.000000 0.000000 0.000000 10.000000 
Rope3_Seg03 0.000000 0.000000 0.000000 0.000000 0.000000 0.000000 10.000000 
Rope3_Seg04 0.000000 0.000000 0.000000 0.000000 0.000000 0.000000 10.000000 
Rope3_Seg05 0.000000 0.000000 0.000000 0.000000 0.000000 0.000000 10.000000 
Rope3_Seg06 0.000000 0.000000 0.000000 0.000000 0.000000 0.000000 10.000000 
Rope3_Seg07 0.000000 0.000000 0.000000 0.000000 0.000000 0.000000 10.000000 
Rope3_Seg08 0.000000 0.000000 0.000000 0.000000 0.000000 0.000000 10.000000 
Rope3_Seg09 0.000000 0.000000 0.000000 0.000000 0.000000 0.000000 10.000000 
R_rear_hand01 0.000000 0.000000 0.000000 0.000000 0.000000 0.000000 10.000000 
R_rear_hand02 0.000000 0.000000 0.000000 0.000000 0.000000 0.000000 10.000000 
R_rear_hand03 0.000000 0.000000 0.000000 0.000000 0.000000 0.000000 10.000000 
Rope4_Seg01 0.000000 0.000000 0.000000 0.000000 0.000000 0.000000 10.000000 
Rope4_Seg02 0.000000 0.000000 0.000000 0.000000 0.000000 0.000000 10.000000 
Rope4_Seg03 0.000000 0.000000 0.000000 0.000000 0.000000 0.000000 10.000000 
Rope4_Seg04 0.000000 0.000000 0.000000 0.000000 0.000000 0.000000 10.000000 
Rope4_Seg05 0.000000 0.000000 0.000000 0.000000 0.000000 0.000000 10.000000 
Rope4_Seg06 0.000000 0.000000 0.000000 0.000000 0.000000 0.000000 10.000000 
Rope4_Seg07 0.000000 0.000000 0.000000 0.000000 0.000000 0.000000 10.000000 
Rope4_Seg08 0.000000 0.000000 0.000000 0.000000 0.000000 0.000000 10.000000 
Rope4_Seg09 0.000000 0.000000 0.000000 0.000000 0.000000 0.000000 10.000000 
L_rear_hand01 0.000000 0.000000 0.000000 0.000000 0.000000 0.000000 10.000000 
L_rear_hand02 0.000000 0.000000 0.000000 0.000000 0.000000 0.000000 10.000000 
L_rear_hand03 0.000000 0.000000 0.000000 0.000000 0.000000 0.000000 10.000000 
#Beginning of Data. Separated by tabs
#Fr	Tx	Ty	Tz	Rx	Ry	Rz	SF
[MASTER]
14 0.000000 0.000000 0.000000 0.001660 0.001660 0.001660 0.000000
15 0.000000 0.000000 0.000000 0.001660 0.001660 0.001660 0.000000
[root]
14 -26.412327 -68.933823 1452.113892 -91.629700 -27.676081 -90.148109 1453.989136
15 -29.379089 -66.006638 1457.304565 -91.629700 -27.676086 -90.148117 1459.094360
[chest]
14 -84.512650 -34.090519 0.000000 -1.888050 0.943089 -178.206696 91.129311
15 -84.512650 -34.090519 0.000000 -1.888051 0.943089 -178.206696 91.129311
[L_mid_tent01]
14 27.299557 22.177610 -249.918304 2.543062 27.355461 80.007721 252.381195
15 27.299562 22.177614 -249.918304 2.710237 28.626240 80.177917 252.381195
[R_mid_tent01]
14 23.228794 24.509907 226.238495 161.299118 -39.988049 84.827385 228.744751
15 23.228794 24.509907 226.238495 161.442383 -40.633137 84.760887 228.744751
[spine01]
14 -0.361383 -0.195265 0.000000 0.001845 0.001451 13.654368 0.410763
15 -0.361383 -0.195265 0.000000 0.001845 0.001451 13.654368 0.410763
[Bip01_Neck]
14 165.484543 71.581718 0.000119 176.643677 -1.657967 43.431911 180.302734
15 165.484543 71.581718 0.000119 176.643677 -1.657967 43.431911 180.302734
[L_humerus]
14 -13.983130 -135.272980 -120.471481 156.317398 70.210068 -112.010254 181.680161
15 -13.983130 -135.272980 -120.471481 156.317398 70.210068 -112.010254 181.680161
[R_humerus]
14 -13.983309 -135.273102 125.287651 -172.382263 -66.903831 -92.553993 184.909012
15 -13.983309 -135.273102 125.287651 -172.382263 -66.903831 -92.553993 184.909012
[weapon_bone]
14 235.964890 -300.705902 0.000000 0.000000 -89.951546 -128.212341 382.234833
15 235.964890 -300.705902 0.000000 0.000000 -89.951546 -128.212341 382.234833
[Bip01_Head]
14 213.663544 185.105209 19.655308 4.441945 -1.131530 -43.899635 283.376740
15 213.674011 185.076294 20.027433 4.438503 -0.898050 -43.900337 283.391815
[eye_left_bone]
14 -24.626970 125.451866 -64.772606 0.000000 -90.000000 -99.840431 143.318359
15 -24.626970 125.451866 -64.772606 0.000000 -90.000000 -99.840431 143.318359
[eye_right_bone]
14 -24.626970 125.451866 64.327362 0.000000 -89.965736 80.156380 143.117676
15 -24.626970 125.451866 64.327362 0.000000 -89.965736 80.156380 143.117676
[L_forearm]
14 322.776093 0.000000 -0.000119 0.000119 -0.002344 -95.807457 322.776093
15 322.776093 0.000000 -0.000119 0.000119 -0.002344 -95.807457 322.776093
[L_front_hand]
14 241.149185 -0.042021 -3.300071 -178.667953 -1.835447 -27.422342 241.171753
15 241.149185 -0.042021 -3.300071 -178.667953 -1.835447 -27.422350 241.171753
[L_weapon_bone]
14 156.183838 0.000000 0.000000 0.000014 0.000007 0.000001 156.183838
15 156.183838 0.000000 0.000000 0.000014 0.000007 0.000001 156.183838
[L_front_hand01_01]
14 86.095154 20.947098 -0.655860 -0.273650 -0.533287 65.061523 88.609184
15 86.095154 20.947098 -0.655860 -0.274633 -0.532782 65.272827 88.609184
[L_front_hand02_01]
14 86.935165 -11.437475 24.513514 140.858566 -54.305298 -45.287003 91.046425
15 86.935165 -11.437475 24.513514 141.090271 -54.445614 -45.572052 91.046425
[L_front_hand03_01]
14 86.637497 -14.123976 -20.424902 -141.258987 52.537949 -47.363300 90.126129
15 86.637497 -14.123976 -20.424902 -141.476303 52.677540 -47.637543 90.126129
[L_front_hand01_02]
14 71.020905 -0.000179 0.000030 0.000315 -0.002326 -105.409866 71.020905
15 71.020905 -0.000179 0.000030 0.000315 -0.002326 -105.405197 71.020905
[L_front_hand02_02]
14 71.020927 -0.000119 0.000060 0.000315 -0.002326 -105.409866 71.020927
15 71.020927 -0.000119 0.000060 0.000315 -0.002326 -105.405197 71.020927
[L_front_hand03_02]
14 71.020905 -0.000060 0.000060 0.000315 -0.002326 -105.409866 71.020905
15 71.020905 -0.000060 0.000060 0.000315 -0.002326 -105.405197 71.020905
[R_forearm]
14 322.776428 -0.000060 0.000030 0.209504 0.012586 -94.339050 322.776428
15 322.776428 -0.000060 0.000030 0.209504 0.012586 -94.339058 322.776428
[R_front_hand]
14 238.847015 -0.006795 2.210259 -2.635298 -10.645461 -26.312506 238.857239
15 238.847015 -0.006795 2.210259 -2.635298 -10.645461 -26.312506 238.857239
[R_weapon_bone]
14 155.664093 0.002503 -0.000030 0.003487 0.001180 -90.988930 155.664078
15 155.664093 0.002503 -0.000030 0.003487 0.001180 -90.988930 155.664078
[R_front_hand01_01]
14 87.624611 14.231146 22.918642 -138.707092 -52.961746 42.720669 91.683487
15 87.624611 14.231146 22.918642 -138.456909 -52.798630 42.405624 91.683487
[R_front_hand02_01]
14 89.356956 14.367283 -19.491137 139.537384 51.404167 45.405891 92.579636
15 89.356956 14.367283 -19.491137 139.300415 51.240429 45.105949 92.579636
[R_front_hand03_01]
14 87.286232 -22.307278 -0.143439 0.065057 -0.451640 -63.223511 90.091743
15 87.286232 -22.307278 -0.143439 0.064051 -0.451784 -62.968155 90.091743
[R_front_hand01_02]
14 71.020905 0.000060 0.000119 0.002323 -0.000334 106.381714 71.020905
15 71.020905 0.000060 0.000119 0.002323 -0.000334 106.381714 71.020905
[R_front_hand02_02]
14 71.020844 -0.000030 -0.000119 0.002323 -0.000334 106.381714 71.020836
15 71.020844 -0.000030 -0.000119 0.002323 -0.000334 106.381714 71.020836
[R_front_hand03_02]
14 71.020905 0.000000 0.000030 0.002323 -0.000334 106.381714 71.020905
15 71.020905 0.000000 0.000030 0.002323 -0.000334 106.381714 71.020905
[null_rope01_connect]
14 328.732483 0.000000 -0.000238 -137.399078 -60.865238 175.764023 328.732483
15 328.732483 0.000000 -0.000238 -137.415848 -59.586475 175.686722 328.732483
[Rope1_Seg01]
14 -0.000038 -0.000114 0.000104 120.155952 39.009647 152.384201 0.000159
15 -0.000038 -0.000114 0.000104 119.761032 41.220047 150.600861 0.000159
[Rope1_Seg02]
14 139.999863 -0.000179 0.000000 0.356803 -7.037332 3.979259 139.999863
15 139.999863 -0.000179 0.000000 0.205618 -6.731180 4.370183 139.999863
[Rope1_Seg03]
14 139.999924 0.000060 -0.000060 -0.641635 -12.675556 7.442756 139.999924
15 139.999924 0.000060 -0.000060 -0.724069 -11.892935 7.959809 139.999924
[Rope1_Seg04]
14 139.999924 -0.000060 -0.000119 -8.090347 -27.026390 16.626869 139.999924
15 139.999924 -0.000060 -0.000119 -6.491706 -23.813864 17.313559 139.999924
[Rope1_Seg05]
14 139.999832 0.000119 -0.000060 -12.321987 -20.641903 11.393509 139.999832
15 139.999832 0.000119 -0.000060 -11.263238 -20.195934 11.999533 139.999832
[Rope1_Seg06]
14 139.999954 0.000119 -0.000060 -0.824283 -2.103929 1.604724 139.999954
15 139.999954 0.000119 -0.000060 -3.943453 -4.223485 1.068205 139.999954
[Rope1_Seg07]
14 139.999985 0.000060 0.000000 -2.826905 -3.170557 1.183579 139.999985
15 139.999985 0.000060 0.000000 -3.845895 -3.687406 0.982044 139.999985
[Rope1_Seg09]
14 121.602913 0.000119 -0.000089 -89.793175 -1.359789 0.847147 121.602913
15 121.602913 0.000119 -0.000089 -89.793175 -1.359789 0.847147 121.602913
[L_mid_hand01]
14 103.859421 1.038730 8.195221 115.405022 -54.702587 -21.718943 104.187431
15 103.859421 1.038730 8.195221 118.511871 -58.710987 -25.432119 104.187431
[L_mid_hand02]
14 105.572853 -4.139662 -10.864139 -156.173538 38.796780 -54.226360 106.211075
15 105.572853 -4.139662 -10.864139 -159.626373 40.490181 -59.638344 106.211075
[L_mid_hand03]
14 104.641464 17.579376 -3.913581 -10.557026 15.605444 59.191402 106.179977
15 104.641464 17.579376 -3.913581 -9.285491 16.381809 63.801434 106.179977
[null_rope02_connect]
14 328.732849 0.000179 -0.000119 -118.477570 48.018993 22.135887 328.732849
15 328.732849 0.000179 -0.000119 -118.953468 47.503750 21.532877 328.732849
[Rope2_Seg01]
14 -0.000060 0.000134 0.000153 -56.090088 34.581043 35.872017 0.000211
15 -0.000058 0.000134 0.000153 -55.763706 35.884476 37.338612 0.000211
[Rope2_Seg02]
14 139.999741 -0.000060 -0.000119 -0.611468 -3.632336 3.411090 139.999756
15 139.999741 -0.000060 -0.000119 -0.543032 -3.629893 3.285140 139.999756
[Rope2_Seg03]
14 140.000107 0.000030 0.000000 -0.838292 -6.277963 5.815653 140.000107
15 140.000107 0.000030 0.000000 -0.752449 -6.273146 5.612504 140.000107
[Rope2_Seg04]
14 139.999802 0.000000 -0.000060 -1.057354 -7.917546 14.290380 139.999802
15 139.999802 0.000000 -0.000060 -0.916454 -7.860097 14.164618 139.999802
[Rope2_Seg05]
14 139.999985 -0.000060 0.000119 -5.358231 -34.108395 18.903633 139.999985
15 139.999985 -0.000060 0.000119 -5.992078 -34.943035 17.406715 139.999985
[Rope2_Seg06]
14 139.999893 -0.000030 -0.000119 -5.602561 -12.460122 1.365890 139.999893
15 139.999893 -0.000030 -0.000119 -5.735120 -11.778304 0.932238 139.999893
[Rope2_Seg07]
14 139.999893 0.000060 -0.000060 -1.613281 -4.289117 0.962923 139.999893
15 139.999893 0.000060 -0.000060 -1.842109 -4.171864 0.751812 139.999893
[Rope2_Seg09]
14 121.338966 0.000089 -0.000060 33.793236 -1.359788 -0.847141 121.338966
15 121.338966 0.000089 -0.000060 33.793236 -1.359788 -0.847141 121.338966
[R_mid_hand01]
14 104.680779 11.144459 -10.335981 -36.578453 32.644390 38.740570 105.778534
15 104.680779 11.144459 -10.335981 -34.826851 34.540035 41.908733 105.778534
[R_mid_hand02]
14 104.070427 2.443552 8.231699 69.973366 -43.581707 14.639650 104.424065
15 104.070427 2.443552 8.231699 68.824310 -46.622631 16.260359 104.424065
[R_mid_hand03]
14 106.028137 -11.221827 -5.996406 -170.161224 12.441347 -48.449886 106.788818
15 106.028137 -11.221827 -5.996406 -170.883774 12.973572 -51.735531 106.788818
[spine02]
14 129.756927 0.001550 0.000119 -1.023899 -3.926965 6.770993 129.756927
15 129.756927 0.001550 0.000119 -1.023899 -3.926965 6.770993 129.756927
[spine03]
14 78.613846 0.087372 -4.898873 1.040680 4.146419 4.212375 78.766380
15 78.613846 0.087372 -4.898873 1.040680 4.146420 4.212376 78.766380
[pelvis]
14 169.435242 0.051022 0.000000 0.019518 -0.190233 -10.721436 169.435257
15 169.435242 0.051022 0.000000 0.019518 -0.190233 -10.721436 169.435257
[null_rope03_connect]
14 -1.257226 -2.466202 137.391083 -148.996323 -87.995132 -107.160522 137.418976
15 -1.257226 -2.466202 137.391083 -148.996719 -87.995338 -107.160492 137.418976
[null_rope04_connect]
14 -1.259640 -2.480268 -137.844437 -148.996323 -87.995132 -107.160522 137.872513
15 -1.259640 -2.480268 -137.844437 -148.996719 -87.995338 -107.160492 137.872513
[Rope3_Seg01]
14 0.000000 0.000000 0.000000 -145.019562 -44.617489 -63.177563 0.000000
15 0.000000 0.000000 0.000000 -144.198273 -45.300903 -64.735359 0.000000
[Rope3_Seg02]
14 139.999924 -0.000119 0.000060 -15.683976 6.465032 -28.496893 139.999924
15 139.999924 -0.000119 0.000060 -15.338240 5.993931 -29.250607 139.999924
[Rope3_Seg03]
14 139.999924 -0.000119 0.000119 -53.246326 21.375517 -42.927017 139.999924
15 139.999924 -0.000119 0.000119 -52.733315 19.483604 -42.720325 139.999924
[Rope3_Seg04]
14 139.999924 0.000119 0.000000 -24.928551 28.765957 -11.782310 139.999924
15 139.999924 0.000119 0.000000 -25.866770 28.127432 -11.666453 139.999924
[Rope3_Seg05]
14 139.999924 -0.000238 0.000060 -10.715258 31.642628 -2.031251 139.999924
15 139.999924 -0.000238 0.000060 -10.740519 32.141747 -0.521918 139.999924
[Rope3_Seg06]
14 139.999893 -0.000119 -0.000060 -0.654964 12.261753 1.667383 139.999893
15 139.999893 -0.000119 -0.000060 -0.590655 12.558828 2.305232 139.999893
[Rope3_Seg07]
14 139.999771 0.000060 -0.000119 0.436100 5.675889 0.922041 139.999771
15 139.999771 0.000060 -0.000119 0.476700 5.756330 1.174504 139.999771
[Rope3_Seg08]
14 139.999985 -0.000060 0.000000 0.600067 3.045163 0.474763 139.999985
15 139.999985 -0.000060 0.000000 0.620695 3.078007 0.611059 139.999985
[Rope3_Seg09]
14 90.185997 -0.000179 -0.000060 89.793228 -1.359877 -0.847183 90.185997
15 90.185997 -0.000179 -0.000060 89.793228 -1.359877 -0.847183 90.185997
[R_rear_hand01]
14 103.366196 -6.073594 -10.757982 -166.165070 20.624767 -44.436901 104.101845
15 103.366196 -6.073594 -10.757982 -167.735992 21.565800 -48.800823 104.101845
[R_rear_hand02]
14 100.509819 12.039542 -7.992327 -29.134808 26.762827 41.953499 101.543350
15 100.509819 12.039542 -7.992327 -27.197794 28.737703 46.115391 101.543350
[R_rear_hand03]
14 101.539970 5.215704 5.435467 81.948593 -44.972103 9.574173 101.819031
15 101.539970 5.215704 5.435467 81.295586 -49.108280 10.466788 101.819031
[Rope4_Seg01]
14 -0.000015 -0.000043 -0.000153 50.897964 -26.569519 -102.955986 0.000159
15 -0.000015 -0.000041 -0.000153 50.844471 -27.473894 -102.552673 0.000159
[Rope4_Seg02]
14 139.999985 0.000060 0.000119 15.576032 -54.234646 16.145475 139.999985
15 139.999985 0.000060 0.000119 15.960619 -54.588181 15.328186 139.999985
[Rope4_Seg03]
14 139.999924 0.000000 -0.000238 39.933598 -29.039797 23.008335 139.999924
15 139.999924 0.000000 -0.000238 40.047726 -28.588579 21.579193 139.999924
[Rope4_Seg04]
14 139.999985 0.000000 0.000119 19.185286 -2.834660 18.870783 139.999985
15 139.999985 0.000000 0.000119 19.820402 -2.901211 18.637720 139.999985
[Rope4_Seg05]
14 139.999802 -0.000060 -0.000119 18.762712 6.568232 36.239819 139.999802
15 139.999802 -0.000060 -0.000119 19.444981 7.094679 36.548386 139.999802
[Rope4_Seg06]
14 139.999924 0.000000 0.000060 4.009285 10.096157 19.890095 139.999924
15 139.999924 0.000000 0.000060 4.172283 10.754689 20.141813 139.999924
[Rope4_Seg07]
14 139.999802 0.000000 0.000000 0.112045 4.193022 7.340238 139.999802
15 139.999802 0.000000 0.000000 0.104796 4.391856 7.335674 139.999802
[Rope4_Seg08]
14 139.999924 0.000000 0.000119 -1.758613 2.114985 3.709877 139.999924
15 139.999924 0.000000 0.000119 -1.768257 2.206683 3.698441 139.999924
[Rope4_Seg09]
14 90.185791 0.000060 0.000060 -135.617828 2.228885 0.850567 90.185791
15 90.185791 0.000060 0.000060 -135.617828 2.228885 0.850567 90.185791
[L_rear_hand01]
14 101.696655 -8.392275 -7.654577 -21.399752 -33.105400 122.636459 102.329041
15 101.696655 -8.392275 -7.654577 -18.919888 -34.466518 118.185951 102.329041
[L_rear_hand02]
14 102.726799 -1.568258 5.773216 78.723900 59.531788 166.383713 102.900848
15 102.726799 -1.568258 5.773216 77.226944 63.386848 164.679077 102.900848
[L_rear_hand03]
14 104.552910 9.721220 -10.420293 -172.062332 -23.429153 -119.922249 105.519653
15 104.552910 9.721220 -10.420293 -173.780411 -23.916803 -115.646591 105.519653
